<svg xmlns="http://www.w3.org/2000/svg" x="0px" y="0px"
width="96" height="96"
viewBox="0 0 172 172"
style=" fill:#000000;"><g fill="none" fill-rule="nonzero" stroke="none" stroke-width="1" stroke-linecap="butt" stroke-linejoin="miter" stroke-miterlimit="10" stroke-dasharray="" stroke-dashoffset="0" font-family="none" font-weight="none" font-size="none" text-anchor="none" style="mix-blend-mode: normal"><path d="M0,172v-172h172v172z" fill="none"></path><g fill="#2ecc71"><path d="M43,103.91667c0,3.94167 -3.225,7.16667 -7.16667,7.16667c-3.94167,0 -7.16667,-3.225 -7.16667,-7.16667v-32.25c0,-3.94167 3.225,-7.16667 7.16667,-7.16667c3.94167,0 7.16667,3.225 7.16667,7.16667zM143.33333,103.91667c0,3.94167 -3.225,7.16667 -7.16667,7.16667c-3.94167,0 -7.16667,-3.225 -7.16667,-7.16667v-32.25c0,-3.94167 3.225,-7.16667 7.16667,-7.16667c3.94167,0 7.16667,3.225 7.16667,7.16667zM78.83333,143.33333c0,3.94167 -3.225,7.16667 -7.16667,7.16667c-3.94167,0 -7.16667,-3.225 -7.16667,-7.16667v-32.25c0,-3.94167 3.225,-7.16667 7.16667,-7.16667c3.94167,0 7.16667,3.225 7.16667,7.16667zM107.5,143.33333c0,3.94167 -3.225,7.16667 -7.16667,7.16667c-3.94167,0 -7.16667,-3.225 -7.16667,-7.16667v-32.25c0,-3.94167 3.225,-7.16667 7.16667,-7.16667c3.94167,0 7.16667,3.225 7.16667,7.16667z"></path><path d="M50.16667,64.5v53.75c0,3.94167 3.225,7.16667 7.16667,7.16667h57.33333c3.94167,0 7.16667,-3.225 7.16667,-7.16667v-53.75zM86,28.66667c-21.5,0 -34.75833,12.9 -35.83333,28.66667h71.66667c-1.075,-15.76667 -14.33333,-28.66667 -35.83333,-28.66667zM71.66667,48.73333c-2.15,0 -3.58333,-1.43333 -3.58333,-3.58333c0,-2.15 1.43333,-3.58333 3.58333,-3.58333c2.15,0 3.58333,1.43333 3.58333,3.58333c0,1.79167 -1.43333,3.58333 -3.58333,3.58333zM100.33333,48.73333c-2.15,0 -3.58333,-1.43333 -3.58333,-3.58333c0,-2.15 1.43333,-3.58333 3.58333,-3.58333c2.15,0 3.58333,1.43333 3.58333,3.58333c0,1.79167 -1.43333,3.58333 -3.58333,3.58333z"></path><path d="M101.40833,37.625c-0.71667,0 -1.43333,-0.35833 -2.15,-0.71667c-1.79167,-1.075 -2.15,-3.225 -1.075,-5.01667l6.09167,-8.95833c1.075,-1.79167 3.225,-2.15 5.01667,-1.075c1.79167,1.075 2.15,3.225 1.075,5.01667l-6.09167,8.95833c-0.35833,1.075 -1.43333,1.79167 -2.86667,1.79167zM69.15833,36.19167c-1.075,0 -2.50833,-0.71667 -2.86667,-1.79167l-4.65833,-7.525c-1.075,-1.79167 -0.71667,-3.94167 1.075,-5.01667c1.79167,-1.075 3.94167,-0.71667 5.01667,1.075l4.65833,7.525c1.075,1.79167 0.71667,3.94167 -1.075,5.01667c-0.71667,0.35833 -1.43333,0.71667 -2.15,0.71667z"></path></g></g></svg>